{"title":"Missing.William.2014.DVDRip.x264-MenaceIISociety","uid":12226461,"size":999317287,"categoryP":"video","categoryS":"movies","magnet":"?xt=urn:btih:cd11a0b6a6320d880dedc32e12bbd6f6abdc510b&amp;dn=Missing.William.2014.DVDRip.x264-MenaceIISociety&amp;tr=udp%3A%2F%2Ftracker.openbittorrent.com%3A80&amp;tr=udp%3A%2F%2Fopen.demonii.com%3A1337&amp;tr=udp%3A%2F%2Ftracker.coppersurfer.tk%3A6969&amp;tr=udp%3A%2F%2Fexodus.desync.com%3A6969","seeders":0,"leechers":0,"uploader":"TvTeam","files":4,"time":1439483804,"description":"------------------------------------------------------------------------\n\n &lt;a href=&quot; https://www.torrenting.com&quot; rel=&quot;nofollow&quot; target=&quot;_NEW&quot;&gt; https://www.torrenting.com&lt;/a&gt;\n\nSign up is OPEN - for time being. Come and have fun\n\n.......................................................................................................................[center][img]http://s14.postimg.org/bbba3k2td/Missing_William_DVD.jpg[/img]\n\nMissing.William.2014.DVDRip.x264-MenaceIISociety &lt;a href=&quot;\nhttp://www.imdb.com/title/tt1633224/&quot; rel=&quot;nofollow&quot; target=&quot;_NEW&quot;&gt;\nhttp://www.imdb.com/title/tt1633224/&lt;/a&gt;\n\nSource: R3.DVD5-MASTER [THANKS]\n\nGeneral\nComplete name                            : Missing.William.2014.DVDRip.x264-MenaceIISociety.mp4\nFormat                                   : MPEG-4\nFormat profile                           : Base Media\nCodec ID                                 : isom\nFile size                                : 908 MiB\nDuration                                 : 1h 30mn\nOverall bit rate mode                    : Variable\nOverall bit rate                         : 1 401 Kbps\nEncoded date                             : UTC 2015-08-13 13:45:59\nTagged date                              : UTC 2015-08-13 13:45:59\n\nVideo\nID                                       : 1\nFormat                                   : AVC\nFormat/Info                              : Advanced Video Codec\nFormat profile                           : &lt;a class=&quot;__cf_email__&quot; href=&quot;/cdn-cgi/l/email-protection&quot; data-cfemail=&quot;175f7e707f575b233926&quot;&gt;[email&amp;#160;protected]&lt;/a&gt;&lt;script data-cfhash='f9e31' type=&quot;text/javascript&quot;&gt;\n/* &lt;![CDATA[ */!function(){try{var t=&quot;currentScript&quot;in document?document.currentScript:function(){for(var t=document.getElementsByTagName(&quot;script&quot;),e=t.length;e--;)if(t[e].getAttribute(&quot;data-cfhash&quot;))return t[e]}();if(t&amp;&amp;t.previousSibling){var e,r,n,i,c=t.previousSibling,a=c.getAttribute(&quot;data-cfemail&quot;);if(a){for(e=&quot;&quot;,r=parseInt(a.substr(0,2),16),n=2;a.length-n;n+=2)i=parseInt(a.substr(n,2),16)^r,e+=String.fromCharCode(i);e=document.createTextNode(e),c.parentNode.replaceChild(e,c)}t.parentNode.removeChild(t);}}catch(u){}}()/* ]]&gt; */&lt;/script&gt;\nFormat settings, CABAC                   : Yes\nFormat settings, ReFrames                : 3 frames\nCodec ID                                 : avc1\nCodec ID/Info                            : Advanced Video Coding\nDuration                                 : 1h 30mn\nBit rate mode                            : Variable\nBit rate                                 : 982 Kbps\nMaximum bit rate                         : 40.0 Mbps\nWidth                                    : 720 pixels\nHeight                                   : 304 pixels\nDisplay aspect ratio                     : 2.35:1\nFrame rate mode                          : Constant\nFrame rate                               : 23.976 fps\nColor space                              : YUV\nChroma subsampling                       : 4:2:0\nBit depth                                : 8 bits\nScan type                                : Progressive\nBits/(Pixel*Frame)                       : 0.187\nStream size                              : 636 MiB (70%)\nWriting library                          : x264 core 148 r2579 73ae2d1\n\nAudio\nID                                       : 2\nFormat                                   : AAC\nFormat/Info                              : Advanced Audio Codec\nFormat profile                           : LC\nCodec ID                                 : 40\nDuration                                 : 1h 30mn\nBit rate mode                            : Variable\nBit rate                                 : 415 Kbps\nMaximum bit rate                         : 504 Kbps\nChannel(s)                               : 6 channels\nChannel positions                        : Front: L C R, Side: L R, LFE\nSampling rate                            : 48.0 KHz\nCompression mode                         : Lossy\nStream size                              : 269 MiB (30%)\nLanguage                                 : English\nEncoded date                             : UTC 2015-08-13 13:27:17\nTagged date                              : UTC 2015-08-13 13:46:34\n\n[img]http://s28.postimg.org/hk9c147wd/vlcsnap_2015_08_13_15h49m14s718.jpg[/img]\n[img]http://s28.postimg.org/vkfz6zz0d/vlcsnap_2015_08_13_15h49m29s930.jpg[/img]\n[img]http://s28.postimg.org/o0iar7gfx/vlcsnap_2015_08_13_15h49m39s397.jpg[/img]\n[img]http://s28.postimg.org/7o891h24d/vlcsnap_2015_08_13_15h49m47s634.jpg[/img]\n[img]http://s28.postimg.org/5yz5temf1/vlcsnap_2015_08_13_15h49m56s093.jpg[/img]\n[img]http://s28.postimg.org/pi3r2rl6l/vlcsnap_2015_08_13_15h50m08s527.jpg[/img] \n \n[img]http://s17.postimg.org/r1iiyw8yn/Untitled_1.png[/img][/center]","torrent":{"xt":"urn:btih:cd11a0b6a6320d880dedc32e12bbd6f6abdc510b","amp;dn":"Missing.William.2014.DVDRip.x264-MenaceIISociety","amp;tr":["udp%3A%2F%2Ftracker.openbittorrent.com%3A80","udp%3A%2F%2Fopen.demonii.com%3A1337","udp%3A%2F%2Ftracker.coppersurfer.tk%3A6969","udp%3A%2F%2Fexodus.desync.com%3A6969"],"infoHash":"cd11a0b6a6320d880dedc32e12bbd6f6abdc510b","infoHashBuffer":{"type":"Buffer","data":[205,17,160,182,166,50,13,136,13,237,195,46,18,187,214,246,171,220,81,11]},"announce":[],"urlList":[]}}